<svg width="40" height="40" viewBox="0 0 40 40" fill="none" xmlns="http://www.w3.org/2000/svg">
  <g opacity="0.3">
    <path d="M39.5 0.5H0.5V0H39.5V0.5Z" fill="url(#paint0_linear)" />
    <path d="M39.5 10.5H0.5V10H39.5V10.5Z" fill="url(#paint1_linear)" />
    <path d="M39.5 20.5H0.5V20H39.5V20.5Z" fill="url(#paint2_linear)" />
    <path d="M39.5 30.5H0.5V30H39.5V30.5Z" fill="url(#paint3_linear)" />
    <path d="M39.5 40.5H0.5V40H39.5V40.5Z" fill="url(#paint4_linear)" />
    <path d="M0.5 39.5V0.5H0V39.5H0.5Z" fill="url(#paint5_linear)" />
    <path d="M10.5 39.5V0.5H10V39.5H10.5Z" fill="url(#paint6_linear)" />
    <path d="M20.5 39.5V0.5H20V39.5H20.5Z" fill="url(#paint7_linear)" />
    <path d="M30.5 39.5V0.5H30V39.5H30.5Z" fill="url(#paint8_linear)" />
    <path d="M40.5 39.5V0.5H40V39.5H40.5Z" fill="url(#paint9_linear)" />
  </g>
  <defs>
    <linearGradient id="paint0_linear" x1="0" y1="0.25" x2="40" y2="0.25" gradientUnits="userSpaceOnUse">
      <stop stop-color="#6366F1" stop-opacity="0.1"/>
      <stop offset="1" stop-color="#8B5CF6" stop-opacity="0.1"/>
    </linearGradient>
    <linearGradient id="paint1_linear" x1="0" y1="10.25" x2="40" y2="10.25" gradientUnits="userSpaceOnUse">
      <stop stop-color="#6366F1" stop-opacity="0.1"/>
      <stop offset="1" stop-color="#8B5CF6" stop-opacity="0.1"/>
    </linearGradient>
    <linearGradient id="paint2_linear" x1="0" y1="20.25" x2="40" y2="20.25" gradientUnits="userSpaceOnUse">
      <stop stop-color="#6366F1" stop-opacity="0.1"/>
      <stop offset="1" stop-color="#8B5CF6" stop-opacity="0.1"/>
    </linearGradient>
    <linearGradient id="paint3_linear" x1="0" y1="30.25" x2="40" y2="30.25" gradientUnits="userSpaceOnUse">
      <stop stop-color="#6366F1" stop-opacity="0.1"/>
      <stop offset="1" stop-color="#8B5CF6" stop-opacity="0.1"/>
    </linearGradient>
    <linearGradient id="paint4_linear" x1="0" y1="40.25" x2="40" y2="40.25" gradientUnits="userSpaceOnUse">
      <stop stop-color="#6366F1" stop-opacity="0.1"/>
      <stop offset="1" stop-color="#8B5CF6" stop-opacity="0.1"/>
    </linearGradient>
    <linearGradient id="paint5_linear" x1="0.25" y1="0" x2="0.25" y2="40" gradientUnits="userSpaceOnUse">
      <stop stop-color="#6366F1" stop-opacity="0.1"/>
      <stop offset="1" stop-color="#8B5CF6" stop-opacity="0.1"/>
    </linearGradient>
    <linearGradient id="paint6_linear" x1="10.25" y1="0" x2="10.25" y2="40" gradientUnits="userSpaceOnUse">
      <stop stop-color="#6366F1" stop-opacity="0.1"/>
      <stop offset="1" stop-color="#8B5CF6" stop-opacity="0.1"/>
    </linearGradient>
    <linearGradient id="paint7_linear" x1="20.25" y1="0" x2="20.25" y2="40" gradientUnits="userSpaceOnUse">
      <stop stop-color="#6366F1" stop-opacity="0.1"/>
      <stop offset="1" stop-color="#8B5CF6" stop-opacity="0.1"/>
    </linearGradient>
    <linearGradient id="paint8_linear" x1="30.25" y1="0" x2="30.25" y2="40" gradientUnits="userSpaceOnUse">
      <stop stop-color="#6366F1" stop-opacity="0.1"/>
      <stop offset="1" stop-color="#8B5CF6" stop-opacity="0.1"/>
    </linearGradient>
    <linearGradient id="paint9_linear" x1="40.25" y1="0" x2="40.25" y2="40" gradientUnits="userSpaceOnUse">
      <stop stop-color="#6366F1" stop-opacity="0.1"/>
      <stop offset="1" stop-color="#8B5CF6" stop-opacity="0.1"/>
    </linearGradient>
  </defs>
</svg>
